<?xml version="1.0" standalone="no"?>
<!DOCTYPE svg PUBLIC "-//W3C//DTD SVG 20010904//EN"
 "http://www.w3.org/TR/2001/REC-SVG-20010904/DTD/svg10.dtd">
<svg version="1.0" xmlns="http://www.w3.org/2000/svg"
 width="512.000000pt" height="512.000000pt" viewBox="0 0 512.000000 512.000000"
 preserveAspectRatio="xMidYMid meet">

<g transform="translate(0.000000,512.000000) scale(0.100000,-0.100000)"
fill="#000000" stroke="none">
<path d="M4480 3555 c0 -42 -1 -44 -32 -49 -18 -3 -350 -10 -738 -15 -405 -5
-720 -13 -740 -19 -74 -21 -217 -65 -258 -79 -52 -18 -144 -79 -212 -140 -81
-73 -237 -315 -265 -412 -9 -31 -21 -66 -26 -79 -5 -12 -12 -54 -15 -92 l-7
-70 92 0 c78 0 91 2 91 16 0 28 23 94 32 94 5 0 8 -24 6 -52 l-3 -53 85 0 84
0 16 60 c24 89 74 189 117 232 45 46 158 128 191 137 12 4 22 11 22 16 0 15
158 58 255 69 95 12 1261 16 1289 5 12 -4 16 -20 16 -55 0 -42 3 -49 19 -49
11 0 21 3 23 8 2 4 76 68 166 142 89 74 162 142 162 150 0 20 -44 62 -87 84
-17 8 -81 56 -142 106 -60 49 -117 90 -126 90 -11 0 -15 -11 -15 -45z m-1110
-240 c0 -13 -24 -15 -155 -15 -90 0 -155 4 -155 9 0 12 52 17 198 19 94 2 112
0 112 -13z m563 9 c86 -12 37 -24 -99 -24 -112 0 -134 2 -134 15 0 12 17 15
94 15 51 0 114 -3 139 -6z m517 -14 c0 -6 -28 -10 -65 -10 -37 0 -65 4 -65 10
0 6 28 10 65 10 37 0 65 -4 65 -10z m-1690 -113 c0 -7 -23 -30 -50 -51 -28
-21 -76 -65 -108 -97 -57 -58 -72 -69 -72 -48 0 17 100 119 164 166 65 48 66
48 66 30z"/>
<path d="M3598 3003 c-36 -6 -35 -17 4 -50 52 -46 81 -81 120 -145 60 -97 80
-161 85 -268 9 -176 -48 -328 -171 -456 -64 -66 -81 -77 -179 -119 -200 -85
-368 -82 -554 9 -29 14 -56 26 -59 26 -4 0 -26 16 -50 35 -23 19 -48 33 -56
30 -7 -3 -21 -22 -31 -43 -18 -39 -28 -55 -119 -183 -31 -44 -54 -87 -52 -94
7 -18 109 -83 199 -128 167 -83 314 -113 515 -104 102 5 143 11 224 37 175 56
370 171 428 253 24 35 134 173 156 196 33 35 100 210 123 321 22 103 17 338
-9 431 -29 105 -56 163 -98 215 l-36 44 -77 -1 c-42 -1 -89 -4 -105 -8 l-29
-6 27 -31 c14 -18 26 -40 26 -50 0 -15 -8 -9 -35 21 -20 21 -33 45 -31 51 3 7
-2 15 -10 18 -17 7 -162 6 -206 -1z m383 -530 c-2 -105 -32 -226 -51 -207 -6
6 -4 29 6 59 8 28 17 84 20 125 3 41 8 81 10 89 10 30 17 -2 15 -66z m-201
-501 c0 -8 -90 -95 -133 -129 -24 -19 -81 -53 -89 -53 -20 0 -3 20 45 53 28
20 76 59 106 87 51 48 71 60 71 42z m-660 -262 l125 -18 -89 -1 c-103 -1 -203
16 -211 37 -4 11 1 13 22 7 16 -4 84 -15 153 -25z"/>
</g>
</svg>
